<?xml version="1.0" encoding="UTF-8" standalone="no"?>
<svg
   xmlns:dc="http://purl.org/dc/elements/1.1/"
   xmlns:cc="http://creativecommons.org/ns#"
   xmlns:rdf="http://www.w3.org/1999/02/22-rdf-syntax-ns#"
   xmlns:svg="http://www.w3.org/2000/svg"
   xmlns="http://www.w3.org/2000/svg"
   xmlns:sodipodi="http://sodipodi.sourceforge.net/DTD/sodipodi-0.dtd"
   xmlns:inkscape="http://www.inkscape.org/namespaces/inkscape"
   sodipodi:docname="drawing-peng.svg"
   inkscape:version="1.0 (4035a4fb49, 2020-05-01)"
   id="svg922"
   version="1.1"
   viewBox="0 0 210 297"
   height="297mm"
   width="210mm">
  <defs
     id="defs916" />
  <sodipodi:namedview
     inkscape:window-maximized="1"
     inkscape:window-y="-8"
     inkscape:window-x="-8"
     inkscape:window-height="1017"
     inkscape:window-width="1920"
     showgrid="false"
     inkscape:document-rotation="0"
     inkscape:current-layer="layer1"
     inkscape:document-units="mm"
     inkscape:cy="470.48008"
     inkscape:cx="373.59315"
     inkscape:zoom="2.8"
     inkscape:pageshadow="2"
     inkscape:pageopacity="0.0"
     borderopacity="1.0"
     bordercolor="#666666"
     pagecolor="#ffffff"
     id="base" />
  <metadata
     id="metadata919">
    <rdf:RDF>
      <cc:Work
         rdf:about="">
        <dc:format>image/svg+xml</dc:format>
        <dc:type
           rdf:resource="http://purl.org/dc/dcmitype/StillImage" />
        <dc:title></dc:title>
      </cc:Work>
    </rdf:RDF>
  </metadata>
  <g
     id="layer1"
     inkscape:groupmode="layer"
     inkscape:label="Layer 1">
    <g
       transform="translate(14.457589,-4.1577381)"
       style="opacity:1"
       id="g940">
      <path
         id="path942"
         d="m 87.858964,150.72709 c -1.22366,-0.5031 -1.22366,-2.57868 0,-3.08178 0.3566,-0.14662 0.34032,-0.15054 -0.64372,-0.15509 -1.58287,-0.007 -2.19161,-0.48098 -2.19161,-1.7053 0,-1.21166 0.61518,-1.70064 2.13956,-1.70064 0.95753,0 0.95753,0 0.18107,-0.93003 -1.97689,-2.36789 -3.84512,-6.48111 -4.34214,-9.55995 -0.0662,-0.41016 -0.10961,-0.42095 -0.5774,-0.14362 -1.82324,1.08095 -3.63338,1.23421 -5.10765,0.43247 -1.05377,-0.57305 -0.88174,-1.15276 1.41036,-4.75265 1.81364,-2.84844 3.14775,-5.57432 3.63165,-7.42024 0.1226,-0.46768 0.47713,-1.77815 0.78783,-2.91216 0.74856,-2.73205 0.91636,-3.52617 0.91636,-4.33675 0,-7.23561 3.84727,-13.8181 9.64928,-16.509489 10.775456,-4.998425 22.362546,3.555919 22.362546,16.509489 0,0.81058 0.1678,1.6047 0.91636,4.33675 0.31071,1.13401 0.66523,2.44448 0.78783,2.91216 0.4839,1.84592 1.81801,4.5718 3.63165,7.42024 2.2921,3.59989 2.46413,4.1796 1.41037,4.75265 -1.47428,0.80174 -3.28442,0.64848 -5.10766,-0.43247 -0.46779,-0.27733 -0.51119,-0.26654 -0.5774,0.14362 -0.49702,3.07884 -2.36525,7.19206 -4.34213,9.55995 -0.77647,0.93003 -0.77647,0.93003 0.18106,0.93003 1.52438,0 2.13957,0.48898 2.13957,1.70064 0,1.22432 -0.60875,1.69799 -2.19162,1.7053 -0.98404,0.005 -1.00032,0.008 -0.64372,0.15509 1.26694,0.52089 1.19667,2.71836 -0.0999,3.12336 -0.46897,0.14649 -4.74839,-0.022 -6.48831,-0.25551 -2.36304,-0.31708 -4.296,-0.8712 -5.23333,-1.50022 -0.38871,-0.26086 -0.38871,-0.26086 -0.777426,0 -1.61378,1.08297 -6.93369,1.95671 -11.3642,1.86643 -0.0503,-0.001 -0.25609,-0.0695 -0.45731,-0.15228 z m 15.081996,-8.65632 c 6.29094,-1.27384 9.75194,-6.39998 9.74961,-14.4403 -8.2e-4,-2.72088 -0.45122,-5.23794 -1.28906,-7.20339 -0.45639,-1.0706 -0.45639,-1.0706 -0.27669,-2.23209 1.33147,-8.60633 -0.99538,-13.7804 -6.20813,-13.80467 -1.38892,-0.006 -1.88988,0.229 -3.47557,1.6337 -1.37366,1.21687 -1.39837,1.21654 -2.693306,-0.0359 -1.43315,-1.38613 -2.20261,-1.71893 -3.75281,-1.6232 -5.08374,0.31395 -7.3178,5.45373 -5.9817,13.76178 0.19291,1.19949 0.19291,1.19949 -0.26995,2.28524 -1.52343,3.57356 -1.73054,9.02932 -0.50322,13.25594 1.85694,6.3949 7.81075,9.79806 14.700826,8.4029 z m -3.703776,-18.83296 c -1.19845,-0.69046 -3.38864,-3.50089 -2.99999,-3.84955 0.02,-0.0179 0.30384,-0.14284 0.63081,-0.27762 0.5756,-0.23726 2.15772,-1.13182 2.8582,-1.61608 0.342986,-0.23712 0.342986,-0.23712 0.685966,0 0.70048,0.48426 2.28261,1.37882 2.8582,1.61608 0.32698,0.13478 0.61084,0.25971 0.63081,0.27762 0.35666,0.31996 -1.77896,3.12953 -2.87164,3.77787 -0.95633,0.56744 -0.93344,0.56653 -1.792356,0.0717 z m -3.87831,-6.61544 c -0.53777,-0.29354 -0.70232,-0.48893 -0.95331,-1.13198 -0.87313,-2.23696 1.60708,-4.19094 3.10704,-2.44782 1.52573,1.77308 -0.20214,4.64506 -2.15373,3.5798 z m 7.756866,-0.0175 c -1.20007,-0.69497 -1.44223,-2.45561 -0.48996,-3.56225 1.52573,-1.77309 3.99707,0.23491 3.08041,2.50287 -0.48155,1.19143 -1.58393,1.64226 -2.59045,1.05938 z"
         style="color:#000000;font-style:normal;font-variant:normal;font-weight:normal;font-stretch:normal;font-size:medium;line-height:normal;font-family:sans-serif;font-variant-ligatures:normal;font-variant-position:normal;font-variant-caps:normal;font-variant-numeric:normal;font-variant-alternates:normal;font-variant-east-asian:normal;font-feature-settings:normal;font-variation-settings:normal;text-indent:0;text-align:start;text-decoration:none;text-decoration-line:none;text-decoration-style:solid;text-decoration-color:#000000;letter-spacing:normal;word-spacing:normal;text-transform:none;writing-mode:lr-tb;direction:ltr;text-orientation:mixed;dominant-baseline:auto;baseline-shift:baseline;text-anchor:start;white-space:normal;shape-padding:0;shape-margin:0;inline-size:0;clip-rule:nonzero;display:inline;overflow:visible;visibility:visible;isolation:auto;mix-blend-mode:normal;color-interpolation:sRGB;color-interpolation-filters:linearRGB;solid-color:#000000;solid-opacity:1;vector-effect:none;fill:#000000;fill-opacity:1;fill-rule:nonzero;stroke:none;stroke-width:0.0985978;stroke-linecap:butt;stroke-linejoin:miter;stroke-miterlimit:4;stroke-dasharray:none;stroke-dashoffset:0;stroke-opacity:1;color-rendering:auto;image-rendering:auto;shape-rendering:auto;text-rendering:auto;enable-background:accumulate;stop-color:#000000;stop-opacity:1" />
      <path
         id="path944"
         d="m 101.75781,96.552734 c -2.610477,-0.302445 -5.364611,0.100232 -8.066404,1.353516 -5.822298,2.7008 -9.677734,9.3016 -9.677734,16.55469 0,0.80377 -0.16565,1.5927 -0.914063,4.32422 -0.310732,1.13412 -0.666279,2.44373 -0.789062,2.91211 -0.481283,1.83593 -1.81313,4.56059 -3.625,7.40625 -1.146394,1.80048 -1.763101,2.8436 -1.964844,3.52343 -0.100871,0.33992 -0.09745,0.59558 0.0059,0.80078 0.103306,0.20521 0.299405,0.35285 0.566407,0.49805 1.491465,0.81109 3.322455,0.65361 5.15625,-0.43359 0.116539,-0.0691 0.206452,-0.1186 0.273437,-0.14844 0.06699,-0.0298 0.109153,-0.0362 0.128906,-0.0312 0.01975,0.005 0.03475,0.0172 0.05273,0.0644 0.01798,0.0473 0.03241,0.12288 0.04883,0.22461 0.499017,3.09121 2.368418,7.20627 4.353516,9.58399 0.194115,0.2325 0.339341,0.40705 0.43164,0.53515 0.04615,0.0641 0.07883,0.11764 0.09766,0.15821 0.01883,0.0406 0.02207,0.067 0.01953,0.0801 -0.0025,0.0131 -0.007,0.0193 -0.03125,0.0312 -0.02429,0.012 -0.06654,0.0243 -0.125,0.0312 -0.116927,0.0139 -0.295774,0.0137 -0.535157,0.0137 -0.767461,0 -1.315615,0.12152 -1.673828,0.40625 -0.358212,0.28472 -0.515625,0.72957 -0.515625,1.34375 0,0.62033 0.157313,1.06425 0.521485,1.34765 0.364172,0.28341 0.922422,0.40273 1.71875,0.40625 0.245978,0.001 0.430963,0.003 0.564453,0.006 0.08411,0.002 0.112325,0.008 0.15625,0.0117 -0.03165,0.0143 -0.04888,0.0237 -0.0957,0.043 -0.633882,0.26062 -0.947266,0.92567 -0.947266,1.58594 0,0.66026 0.313384,1.32727 0.947266,1.58789 0.101654,0.0418 0.20484,0.0794 0.289062,0.10742 0.04211,0.014 0.07839,0.0249 0.109375,0.0332 0.03098,0.008 0.05308,0.0132 0.07617,0.0137 2.218896,0.0452 4.659437,-0.14915 6.748047,-0.49218 2.08861,-0.34303 3.821922,-0.82883 4.644531,-1.38086 0.194358,-0.13043 0.286206,-0.1875 0.361329,-0.1875 0.0751,0 0.16697,0.0571 0.36133,0.1875 0.95224,0.63903 2.88883,1.19019 5.25586,1.50781 0.87369,0.11726 2.37764,0.21649 3.72461,0.26953 0.67348,0.0265 1.30733,0.0422 1.80273,0.041 0.2477,-5.8e-4 0.46027,-0.005 0.62695,-0.0137 0.16668,-0.009 0.28343,-0.0211 0.35352,-0.043 0.67226,-0.20999 1.0251,-0.88352 1.04687,-1.56446 0.0218,-0.68093 -0.28509,-1.3825 -0.9414,-1.65234 -0.0468,-0.0193 -0.064,-0.0287 -0.0957,-0.043 0.0439,-0.004 0.0728,-0.01 0.15626,-0.0117 0.1335,-0.003 0.31846,-0.005 0.56445,-0.006 0.79632,-0.004 1.35457,-0.12288 1.71875,-0.40625 0.36417,-0.28336 0.52148,-0.72732 0.52148,-1.34765 0,-0.61418 -0.15936,-1.05903 -0.51758,-1.34375 -0.35821,-0.28473 -0.90441,-0.40625 -1.67187,-0.40625 -0.23938,0 -0.41823,1.9e-4 -0.53516,-0.0137 -0.0585,-0.007 -0.1007,-0.0192 -0.125,-0.0312 -0.0243,-0.012 -0.0287,-0.0182 -0.0312,-0.0312 -0.003,-0.0131 7e-4,-0.0395 0.0195,-0.0801 0.0188,-0.0406 0.0515,-0.0941 0.0977,-0.15821 0.0923,-0.1281 0.23752,-0.30265 0.43164,-0.53515 1.98509,-2.37772 3.8545,-6.49278 4.35352,-9.58399 0.0164,-0.10173 0.0308,-0.17736 0.0488,-0.22461 0.018,-0.0472 0.033,-0.0595 0.0527,-0.0644 0.0198,-0.005 0.0619,0.001 0.12891,0.0312 0.067,0.0298 0.15689,0.0794 0.27343,0.14844 1.8338,1.0872 3.66478,1.24468 5.15625,0.43359 0.267,-0.1452 0.46311,-0.29284 0.56641,-0.49805 0.1033,-0.2052 0.10673,-0.46086 0.006,-0.80078 -0.20175,-0.67983 -0.81845,-1.72295 -1.96485,-3.52343 -1.81186,-2.84566 -3.14567,-5.57032 -3.62695,-7.40625 -0.12278,-0.46838 -0.47637,-1.77799 -0.78711,-2.91211 -0.74841,-2.73152 -0.91406,-3.52045 -0.91406,-4.32422 0,-6.49149 -2.90339,-11.88277 -7.16016,-15.025393 -2.12838,-1.57131 -4.59655,-2.580367 -7.20703,-2.882813 z m -0.01,0.09766 c 2.59269,0.300486 5.04288,1.301612 7.1582,2.863281 4.23065,3.123338 7.11914,8.485178 7.11914,14.947268 0,0.81738 0.16926,1.61702 0.91797,4.34961 0.31068,1.13389 0.66665,2.44513 0.78906,2.91211 0.48652,1.8559 1.82131,4.58237 3.63672,7.43359 1.14571,1.79941 1.76122,2.84675 1.95508,3.5 0.0969,0.32663 0.0892,0.54941 0,0.72656 -0.0892,0.17716 -0.26746,0.31571 -0.52734,0.45703 -1.45709,0.79239 -3.24591,0.64306 -5.0586,-0.43164 -0.11735,-0.0696 -0.20841,-0.12098 -0.2832,-0.15429 -0.0748,-0.0333 -0.13551,-0.0515 -0.19336,-0.0371 -0.0579,0.0144 -0.0957,0.0635 -0.11914,0.125 -0.0234,0.0615 -0.038,0.14079 -0.0547,0.24414 -0.49502,3.06647 -2.36336,7.17905 -4.33203,9.53711 -0.19412,0.2325 -0.33939,0.40755 -0.43555,0.54101 -0.0481,0.0667 -0.0841,0.12162 -0.10742,0.17188 -0.0233,0.0503 -0.0361,0.0956 -0.0273,0.14062 0.009,0.0451 0.044,0.0828 0.0859,0.10352 0.0419,0.0207 0.0922,0.0315 0.15625,0.0391 0.12812,0.0152 0.3075,0.0137 0.54688,0.0137 0.75692,0 1.28085,0.12404 1.61133,0.38672 0.33047,0.26268 0.48047,0.66814 0.48047,1.26563 0,0.60399 -0.14846,1.00815 -0.48438,1.26953 -0.33592,0.26138 -0.87166,0.38308 -1.6582,0.38672 -0.24604,0.001 -0.43319,0.003 -0.56836,0.006 -0.13517,0.003 -0.21572,0.007 -0.26758,0.0195 -0.013,0.003 -0.0248,0.006 -0.0371,0.0137 -0.006,0.004 -0.0132,0.008 -0.0195,0.0156 -0.003,0.004 -0.007,0.0128 -0.008,0.0137 -4e-4,8.8e-4 -0.006,0.0166 -0.006,0.0176 -1.1e-4,9.3e-4 9.3e-4,0.0122 0.002,0.0176 0.001,0.005 0.002,0.01 0.004,0.0137 0.004,0.008 0.009,0.0146 0.0137,0.0195 0.009,0.01 0.017,0.0169 0.0273,0.0234 0.0416,0.0263 0.10599,0.053 0.19532,0.0898 0.61062,0.25105 0.90162,0.90737 0.88085,1.55664 -0.0208,0.64927 -0.35225,1.27764 -0.97656,1.47265 -0.0472,0.0147 -0.16616,0.0302 -0.33008,0.0391 -0.16391,0.009 -0.37446,0.0131 -0.62109,0.0137 -0.49326,0.001 -1.12635,-0.0126 -1.79883,-0.0391 -1.34496,-0.053 -2.85057,-0.15328 -3.71679,-0.26954 -2.35905,-0.31654 -4.29048,-0.87317 -5.21289,-1.49218 -0.19436,-0.13043 -0.29679,-0.20508 -0.41602,-0.20508 -0.119235,0 -0.221658,0.0746 -0.416016,0.20508 -0.791171,0.53093 -2.523052,1.02322 -4.605469,1.36523 -2.082417,0.34201 -4.518854,0.53725 -6.730469,0.49219 -0.0021,-4e-5 -0.0247,-0.004 -0.05273,-0.0117 -0.02804,-0.007 -0.06274,-0.0177 -0.103516,-0.0312 -0.08155,-0.0272 -0.183637,-0.0645 -0.283203,-0.10547 -0.589778,-0.24248 -0.886719,-0.86702 -0.886719,-1.49609 0,-0.62908 0.296941,-1.25166 0.886719,-1.49414 0.08934,-0.0367 0.155694,-0.0635 0.197266,-0.0898 0.01039,-0.007 0.0183,-0.0136 0.02734,-0.0234 0.0045,-0.005 0.0099,-0.0112 0.01367,-0.0195 0.0019,-0.004 0.0029,-0.008 0.0039,-0.0137 0.001,-0.005 0.0021,-0.0166 0.002,-0.0176 -1.05e-4,-9.3e-4 -0.0055,-0.0167 -0.0059,-0.0176 -3.98e-4,-9e-4 -0.0047,-0.01 -0.0078,-0.0137 -0.0063,-0.008 -0.01336,-0.012 -0.01953,-0.0156 -0.01235,-0.007 -0.02414,-0.0105 -0.03711,-0.0137 -0.05189,-0.0125 -0.132398,-0.0162 -0.267578,-0.0195 -0.13518,-0.003 -0.322317,-0.005 -0.568359,-0.006 -0.786543,-0.003 -1.322288,-0.12531 -1.658203,-0.38672 -0.335916,-0.26142 -0.484375,-0.66554 -0.484375,-1.26953 0,-0.59749 0.149996,-1.00295 0.480468,-1.26563 0.330473,-0.26268 0.85441,-0.38672 1.611328,-0.38672 0.239383,0 0.418761,0.002 0.546876,-0.0137 0.06406,-0.008 0.114332,-0.0184 0.15625,-0.0391 0.04192,-0.0207 0.07716,-0.0585 0.08594,-0.10352 0.0088,-0.0451 -0.004,-0.0904 -0.02734,-0.14062 -0.02333,-0.0503 -0.05934,-0.10515 -0.107422,-0.17188 -0.09616,-0.13346 -0.241432,-0.30851 -0.435547,-0.54101 -1.968682,-2.35806 -3.837007,-6.47064 -4.332031,-9.53711 -0.01668,-0.10335 -0.03129,-0.18268 -0.05469,-0.24414 -0.02339,-0.0615 -0.06325,-0.11061 -0.121094,-0.125 -0.05785,-0.0144 -0.116617,0.004 -0.191406,0.0371 -0.07479,0.0333 -0.165848,0.0847 -0.283203,0.15429 -1.812686,1.0747 -3.603472,1.22403 -5.060547,0.43164 -0.259884,-0.14132 -0.436208,-0.27987 -0.525391,-0.45703 -0.08918,-0.17715 -0.09693,-0.39993 0,-0.72656 0.193854,-0.65325 0.809372,-1.70059 1.955078,-3.5 1.815411,-2.85122 3.150202,-5.57769 3.636719,-7.43359 0.122417,-0.46698 0.478395,-1.77822 0.789062,-2.91211 0.748708,-2.73259 0.917969,-3.53223 0.917969,-4.34961 0,-7.21814 3.83742,-13.78287 9.619141,-16.464846 2.685935,-1.245928 5.422928,-1.64619 8.015628,-1.345703 z m -6.755862,7.666019 c -2.557947,0.15796 -4.408668,1.53614 -5.441407,3.91211 -1.032738,2.37596 -1.254924,5.74639 -0.585937,9.90625 0.19291,1.19949 0.195282,1.17206 -0.267578,2.25781 -1.529897,3.58873 -1.734809,9.0501 -0.503907,13.28906 1.863504,6.4175 7.847039,9.83685 14.757811,8.4375 l 0.0391,-0.008 v -0.008 c 3.1351,-0.64514 5.57596,-2.24276 7.22657,-4.6875 1.65834,-2.4562 2.5246,-5.75792 2.52343,-9.78516 -8.2e-4,-2.72631 -0.45167,-5.2491 -1.29296,-7.22266 -0.45639,-1.0706 -0.45314,-1.04358 -0.27344,-2.20508 0.66662,-4.30892 0.41872,-7.76242 -0.6543,-10.14843 -1.07302,-2.38601 -2.98086,-3.70068 -5.60351,-3.71289 -0.69727,-0.003 -1.17845,0.0536 -1.6836,0.29101 -0.50514,0.23739 -1.03046,0.65036 -1.82422,1.35352 -0.34336,0.30417 -0.60258,0.53282 -0.81445,0.68164 -0.21187,0.14881 -0.3724,0.21691 -0.52734,0.21484 -0.154948,-0.002 -0.313625,-0.0743 -0.515629,-0.22851 -0.202003,-0.15419 -0.445853,-0.38812 -0.769531,-0.70118 -0.718327,-0.69475 -1.271808,-1.12872 -1.845703,-1.37695 -0.573895,-0.24822 -1.164251,-0.30788 -1.943359,-0.25976 z m 0.0059,0.0977 c 0.771091,-0.0476 1.341765,0.0112 1.898437,0.25196 0.556673,0.24077 1.101584,0.66605 1.816407,1.35742 0.323789,0.31316 0.569539,0.54888 0.779297,0.70898 0.209757,0.1601 0.387457,0.24559 0.572262,0.24805 0.18481,0.002 0.36637,-0.0782 0.58594,-0.23242 0.21957,-0.15423 0.48075,-0.38324 0.82422,-0.6875 0.79194,-0.70155 1.30984,-1.1081 1.79883,-1.33789 0.48899,-0.2298 0.95092,-0.28619 1.64258,-0.28321 2.59009,0.0121 4.45294,1.29562 5.51367,3.6543 1.06072,2.35868 1.31133,5.79635 0.64648,10.09375 -0.1797,1.16149 -0.17709,1.18917 0.2793,2.25977 0.83438,1.95734 1.28434,4.46814 1.28515,7.18359 0.001,4.01308 -0.86154,7.29505 -2.50585,9.73047 -1.64432,2.43542 -4.06854,4.02544 -7.20313,4.66015 l -0.01,0.002 c -6.865046,1.38555 -12.78531,-2 -14.634771,-8.36914 -1.223737,-4.21429 -1.01501,-9.66427 0.501953,-13.22266 0.46286,-1.08575 0.466348,-1.11301 0.273438,-2.3125 -0.667113,-4.1482 -0.441123,-7.50214 0.580078,-9.85156 1.021202,-2.34943 2.829675,-3.69754 5.355469,-3.85352 z m 8.878903,7.9043 c -0.4456,0.0265 -0.90033,0.23966 -1.28906,0.69141 -0.97183,1.12936 -0.72492,2.92704 0.50391,3.63867 0.51478,0.29811 1.05951,0.33319 1.53515,0.13867 0.47564,-0.19452 0.88014,-0.61683 1.125,-1.22266 0.466,-1.15293 0.072,-2.24681 -0.63867,-2.82422 -0.35532,-0.2887 -0.79072,-0.44834 -1.23633,-0.42187 z m -7.601559,0.008 c -0.443288,-0.0278 -0.878787,0.12652 -1.236329,0.40821 -0.715083,0.56336 -1.123769,1.63569 -0.679687,2.77343 0.252414,0.6467 0.434429,0.86228 0.976563,1.15821 0.498759,0.27224 0.988874,0.29422 1.414062,0.14257 0.425188,-0.15164 0.783651,-0.47517 1.03125,-0.88671 0.495198,-0.82309 0.546981,-2.00862 -0.230469,-2.91211 -0.382341,-0.44433 -0.832102,-0.65576 -1.27539,-0.6836 z m 7.607419,0.0898 c 0.41824,-0.0249 0.82932,0.12523 1.16797,0.40039 0.67729,0.55031 1.06004,1.59591 0.60938,2.71093 -0.23669,0.5856 -0.62275,0.98494 -1.07032,1.16797 -0.44756,0.18304 -0.95748,0.15196 -1.44922,-0.13281 -1.17131,-0.67832 -1.40927,-2.40437 -0.47656,-3.48828 0.37414,-0.4348 0.80052,-0.63336 1.21875,-0.6582 z m -7.615232,0.008 c 0.41633,0.0261 0.839393,0.22315 1.207031,0.65039 0.74828,0.86959 0.697859,2.00702 0.222657,2.79687 -0.237602,0.39493 -0.580476,0.7011 -0.980469,0.84375 -0.399993,0.14266 -0.856949,0.12367 -1.333985,-0.13672 -0.533406,-0.29115 -0.682074,-0.46606 -0.93164,-1.10546 -0.429048,-1.09923 -0.03329,-2.12307 0.648437,-2.66016 0.340865,-0.26854 0.751639,-0.41481 1.167969,-0.38867 z m 3.800782,4.84375 c -0.108468,0 -0.199601,0.067 -0.371094,0.18554 -0.695279,0.48067 -2.282995,1.37858 -2.847657,1.61133 -0.1638,0.0675 -0.316807,0.13306 -0.43164,0.1836 -0.05742,0.0253 -0.105392,0.0478 -0.140625,0.0644 -0.01762,0.008 -0.03166,0.0156 -0.04297,0.0215 -0.01131,0.006 -0.01583,0.006 -0.0293,0.0176 -0.0347,0.0311 -0.05449,0.0749 -0.06055,0.12305 -0.0061,0.0482 3.36e-4,0.10267 0.01367,0.16211 0.02667,0.11887 0.08602,0.26193 0.171875,0.42578 0.171708,0.3277 0.447805,0.7345 0.773438,1.15234 0.643346,0.82554 1.472886,1.67964 2.083984,2.04102 v 0.01 l 0.02539,0.0156 c 0.429282,0.24731 0.645924,0.37877 0.886719,0.36914 0.24079,-0.01 0.47705,-0.15777 0.95508,-0.44141 0.56109,-0.33292 1.36593,-1.19894 1.99414,-2.02539 0.3141,-0.41322 0.58268,-0.81606 0.75195,-1.13867 0.0846,-0.1613 0.14381,-0.30238 0.17188,-0.41797 0.014,-0.0578 0.0201,-0.10973 0.0156,-0.15625 -0.004,-0.0465 -0.0212,-0.0891 -0.0547,-0.11914 -0.0135,-0.0121 -0.018,-0.0117 -0.0293,-0.0176 -0.0113,-0.006 -0.0254,-0.0131 -0.043,-0.0215 -0.0352,-0.0167 -0.0832,-0.0392 -0.14063,-0.0644 -0.11483,-0.0505 -0.26783,-0.11608 -0.43164,-0.1836 -0.56465,-0.23275 -2.15433,-1.13066 -2.84961,-1.61133 -0.17149,-0.11856 -0.26262,-0.18554 -0.37109,-0.18554 z m 0,0.0977 c 0.063,0 0.14492,0.0514 0.31641,0.16993 0.70568,0.48785 2.28066,1.37932 2.86718,1.62109 0.16318,0.0673 0.31586,0.13154 0.42969,0.18164 0.0569,0.025 0.10289,0.0465 0.13672,0.0625 0.0169,0.008 0.0317,0.0147 0.041,0.0195 0.009,0.005 0.0183,0.0135 0.01,0.006 0.0111,0.01 0.0186,0.0246 0.0215,0.0547 0.003,0.0301 -0.001,0.0721 -0.0137,0.12305 -0.0247,0.10183 -0.0816,0.23926 -0.16406,0.39648 -0.16499,0.31444 -0.43233,0.7148 -0.74414,1.125 -0.62361,0.82041 -1.43326,1.68263 -1.96484,1.99805 -0.47831,0.2838 -0.70663,0.41967 -0.90821,0.42773 -0.201569,0.008 -0.404348,-0.10795 -0.833981,-0.35547 -0.585411,-0.33727 -1.433798,-1.21171 -2.080078,-2.04101 -0.32314,-0.41465 -0.596576,-0.81783 -0.763672,-1.13672 -0.08355,-0.15945 -0.140668,-0.29809 -0.164063,-0.40235 -0.0117,-0.0521 -0.01569,-0.0953 -0.01172,-0.12695 0.004,-0.0316 0.01346,-0.05 0.02734,-0.0625 -0.0085,0.008 4.44e-4,-9.8e-4 0.0098,-0.006 0.0093,-0.005 0.02215,-0.0115 0.03906,-0.0195 0.03383,-0.016 0.08176,-0.0375 0.138672,-0.0625 0.113829,-0.0501 0.266518,-0.11438 0.429688,-0.18164 0.586538,-0.24177 2.161505,-1.13324 2.867187,-1.62109 0.171493,-0.11856 0.251434,-0.16993 0.314454,-0.16993 z"
         style="color:#000000;font-style:normal;font-variant:normal;font-weight:normal;font-stretch:normal;font-size:medium;line-height:normal;font-family:sans-serif;font-variant-ligatures:normal;font-variant-position:normal;font-variant-caps:normal;font-variant-numeric:normal;font-variant-alternates:normal;font-variant-east-asian:normal;font-feature-settings:normal;font-variation-settings:normal;text-indent:0;text-align:start;text-decoration:none;text-decoration-line:none;text-decoration-style:solid;text-decoration-color:#000000;letter-spacing:normal;word-spacing:normal;text-transform:none;writing-mode:lr-tb;direction:ltr;text-orientation:mixed;dominant-baseline:auto;baseline-shift:baseline;text-anchor:start;white-space:normal;shape-padding:0;shape-margin:0;inline-size:0;clip-rule:nonzero;display:inline;overflow:visible;visibility:visible;isolation:auto;mix-blend-mode:normal;color-interpolation:sRGB;color-interpolation-filters:linearRGB;solid-color:#000000;solid-opacity:1;vector-effect:none;fill-opacity:1;fill-rule:nonzero;stroke:none;stroke-width:0.0985978;stroke-linecap:butt;stroke-linejoin:miter;stroke-miterlimit:4;stroke-dasharray:none;stroke-dashoffset:0;stroke-opacity:1;color-rendering:auto;image-rendering:auto;shape-rendering:auto;text-rendering:auto;enable-background:accumulate;stop-color:#000000;stop-opacity:1" />
    </g>
  </g>
</svg>
